# xmcd
#
# Track frame offsets: 
#        182
#        13865
#        27422
#        37522
#        47947
#        58947
#        69497
#        80722
#        92837
#        104182
#        115397
#        127360
#        140222
#        153287
#        166172
#        178022
#        189347
#        201392
#        212932
#        225967
#
# Disc length: 3156 seconds
#
# Revision: 8
# Processed by: cddbd v1.5.2PL0 Copyright (c) Steve Scherf et al.
# Submitted via: ExactAudioCopy v0.99pb5
#
DISCID=2b0c5214
DTITLE=Various Artist - Deja Vu Definitive Gold - The Blues [CD1) Robe
DTITLE=rt Johnson
DYEAR=2006
DGENRE=Blues
TTITLE0=Sweet Home Chicago
TTITLE1=Terraplane Blues
TTITLE2=Little Queen Of Spades, Pt. 1
TTITLE3=Little Queen Of Spades, Pt. 2
TTITLE4=Love In Vain, Pt. 1
TTITLE5=Love In Vain, Pt. 2
TTITLE6=Walking Blues
TTITLE7=Cross Road Blues, Pt. 1
TTITLE8=Cross Road Blues, Pt. 2
TTITLE9=Stones In My Passway
TTITLE10=When You Got A Good Friend, Pt. 1
TTITLE11=When You Got A Good Friend, Pt. 2
TTITLE12=32-30 Blues
TTITLE13=Preaching Blues (Up Jumped The Devil)
TTITLE14=Me and The Devil Blues, Pt. 1
TTITLE15=Me and The Devil Blues, Pt. 2
TTITLE16=Phonograph Blues, Pt. 1
TTITLE17=Phonograph Blues, Pt. 2
TTITLE18=Rambling On My Mind, Pt. 1
TTITLE19=Rambling On My Mind, Pt. 2
EXTD=
EXTT0=
EXTT1=
EXTT2=
EXTT3=
EXTT4=
EXTT5=
EXTT6=
EXTT7=
EXTT8=
EXTT9=
EXTT10=
EXTT11=
EXTT12=
EXTT13=
EXTT14=
EXTT15=
EXTT16=
EXTT17=
EXTT18=
EXTT19=
PLAYORDER=
